<mxfile host="65bd71144e">
    <diagram id="0TDvkOPWQynb_lTxAvaU" name="Page-1">
        <mxGraphModel dx="1481" dy="841" grid="1" gridSize="10" guides="1" tooltips="1" connect="1" arrows="1" fold="1" page="1" pageScale="1" pageWidth="850" pageHeight="1100" math="0" shadow="0">
            <root>
                <mxCell id="0"/>
                <mxCell id="1" parent="0"/>
                <mxCell id="2" value="26" style="ellipse;whiteSpace=wrap;html=1;aspect=fixed;" vertex="1" parent="1">
                    <mxGeometry x="220" y="10" width="80" height="80" as="geometry"/>
                </mxCell>
                <mxCell id="3" value="5" style="ellipse;whiteSpace=wrap;html=1;aspect=fixed;" vertex="1" parent="1">
                    <mxGeometry x="220" y="120" width="80" height="80" as="geometry"/>
                </mxCell>
                <mxCell id="4" value="48" style="ellipse;whiteSpace=wrap;html=1;aspect=fixed;" vertex="1" parent="1">
                    <mxGeometry x="150" y="230" width="80" height="80" as="geometry"/>
                </mxCell>
                <mxCell id="5" value="69" style="ellipse;whiteSpace=wrap;html=1;aspect=fixed;" vertex="1" parent="1">
                    <mxGeometry x="385" y="220" width="80" height="80" as="geometry"/>
                </mxCell>
                <mxCell id="6" value="6" style="ellipse;whiteSpace=wrap;html=1;aspect=fixed;" vertex="1" parent="1">
                    <mxGeometry y="390" width="80" height="80" as="geometry"/>
                </mxCell>
                <mxCell id="7" value="87" style="ellipse;whiteSpace=wrap;html=1;aspect=fixed;" vertex="1" parent="1">
                    <mxGeometry x="130" y="410" width="80" height="80" as="geometry"/>
                </mxCell>
                <mxCell id="8" value="8" style="ellipse;whiteSpace=wrap;html=1;aspect=fixed;" vertex="1" parent="1">
                    <mxGeometry x="320" y="410" width="80" height="80" as="geometry"/>
                </mxCell>
                <mxCell id="9" value="64" style="ellipse;whiteSpace=wrap;html=1;aspect=fixed;" vertex="1" parent="1">
                    <mxGeometry x="490" y="410" width="80" height="80" as="geometry"/>
                </mxCell>
                <mxCell id="10" value="24" style="ellipse;whiteSpace=wrap;html=1;aspect=fixed;" vertex="1" parent="1">
                    <mxGeometry x="-90" y="540" width="80" height="80" as="geometry"/>
                </mxCell>
                <mxCell id="11" value="50" style="ellipse;whiteSpace=wrap;html=1;aspect=fixed;" vertex="1" parent="1">
                    <mxGeometry y="580" width="80" height="80" as="geometry"/>
                </mxCell>
                <mxCell id="12" value="28" style="ellipse;whiteSpace=wrap;html=1;aspect=fixed;" vertex="1" parent="1">
                    <mxGeometry x="110" y="580" width="80" height="80" as="geometry"/>
                </mxCell>
                <mxCell id="13" value="52" style="ellipse;whiteSpace=wrap;html=1;aspect=fixed;" vertex="1" parent="1">
                    <mxGeometry x="220" y="580" width="80" height="80" as="geometry"/>
                </mxCell>
                <mxCell id="14" value="12" style="ellipse;whiteSpace=wrap;html=1;aspect=fixed;" vertex="1" parent="1">
                    <mxGeometry x="360" y="590" width="80" height="80" as="geometry"/>
                </mxCell>
                <mxCell id="15" value="19" style="ellipse;whiteSpace=wrap;html=1;aspect=fixed;" vertex="1" parent="1">
                    <mxGeometry x="450" y="560" width="80" height="80" as="geometry"/>
                </mxCell>
                <mxCell id="16" value="" style="endArrow=none;html=1;entryX=0.5;entryY=1;entryDx=0;entryDy=0;" edge="1" parent="1" source="3" target="2">
                    <mxGeometry width="50" height="50" relative="1" as="geometry">
                        <mxPoint x="290" y="460" as="sourcePoint"/>
                        <mxPoint x="340" y="410" as="targetPoint"/>
                    </mxGeometry>
                </mxCell>
                <mxCell id="17" value="" style="endArrow=none;html=1;entryX=0.5;entryY=1;entryDx=0;entryDy=0;exitX=1;exitY=0;exitDx=0;exitDy=0;" edge="1" parent="1" source="4" target="3">
                    <mxGeometry width="50" height="50" relative="1" as="geometry">
                        <mxPoint x="290" y="460" as="sourcePoint"/>
                        <mxPoint x="340" y="410" as="targetPoint"/>
                    </mxGeometry>
                </mxCell>
                <mxCell id="18" value="" style="endArrow=none;html=1;entryX=0.5;entryY=1;entryDx=0;entryDy=0;" edge="1" parent="1" source="5" target="3">
                    <mxGeometry width="50" height="50" relative="1" as="geometry">
                        <mxPoint x="208.2842712474619" y="341.7157287525381" as="sourcePoint"/>
                        <mxPoint x="270" y="280" as="targetPoint"/>
                    </mxGeometry>
                </mxCell>
                <mxCell id="22" value="" style="endArrow=none;html=1;entryX=0.5;entryY=1;entryDx=0;entryDy=0;exitX=0.5;exitY=0;exitDx=0;exitDy=0;" edge="1" parent="1" source="6" target="4">
                    <mxGeometry width="50" height="50" relative="1" as="geometry">
                        <mxPoint x="290" y="460" as="sourcePoint"/>
                        <mxPoint x="340" y="410" as="targetPoint"/>
                    </mxGeometry>
                </mxCell>
                <mxCell id="23" value="" style="endArrow=none;html=1;exitX=0.5;exitY=0;exitDx=0;exitDy=0;" edge="1" parent="1" source="7">
                    <mxGeometry width="50" height="50" relative="1" as="geometry">
                        <mxPoint x="290" y="460" as="sourcePoint"/>
                        <mxPoint x="190" y="310" as="targetPoint"/>
                    </mxGeometry>
                </mxCell>
                <mxCell id="24" value="" style="endArrow=none;html=1;entryX=0.5;entryY=1;entryDx=0;entryDy=0;exitX=0.5;exitY=0;exitDx=0;exitDy=0;" edge="1" parent="1" source="13" target="7">
                    <mxGeometry width="50" height="50" relative="1" as="geometry">
                        <mxPoint x="310" y="550" as="sourcePoint"/>
                        <mxPoint x="220" y="520" as="targetPoint"/>
                    </mxGeometry>
                </mxCell>
                <mxCell id="25" value="" style="endArrow=none;html=1;exitX=0.5;exitY=0;exitDx=0;exitDy=0;entryX=0.5;entryY=1;entryDx=0;entryDy=0;" edge="1" parent="1" source="12" target="7">
                    <mxGeometry width="50" height="50" relative="1" as="geometry">
                        <mxPoint x="290" y="460" as="sourcePoint"/>
                        <mxPoint x="220" y="510" as="targetPoint"/>
                    </mxGeometry>
                </mxCell>
                <mxCell id="26" value="" style="endArrow=none;html=1;entryX=0.5;entryY=1;entryDx=0;entryDy=0;exitX=0.5;exitY=0;exitDx=0;exitDy=0;" edge="1" parent="1" source="11" target="6">
                    <mxGeometry width="50" height="50" relative="1" as="geometry">
                        <mxPoint x="290" y="460" as="sourcePoint"/>
                        <mxPoint x="340" y="410" as="targetPoint"/>
                    </mxGeometry>
                </mxCell>
                <mxCell id="27" value="" style="endArrow=none;html=1;entryX=0.5;entryY=1;entryDx=0;entryDy=0;exitX=0.5;exitY=0;exitDx=0;exitDy=0;" edge="1" parent="1" source="10" target="6">
                    <mxGeometry width="50" height="50" relative="1" as="geometry">
                        <mxPoint x="290" y="460" as="sourcePoint"/>
                        <mxPoint x="340" y="410" as="targetPoint"/>
                    </mxGeometry>
                </mxCell>
                <mxCell id="28" value="" style="endArrow=none;html=1;entryX=0.5;entryY=1;entryDx=0;entryDy=0;" edge="1" parent="1" source="8" target="5">
                    <mxGeometry width="50" height="50" relative="1" as="geometry">
                        <mxPoint x="200" y="460" as="sourcePoint"/>
                        <mxPoint x="250" y="410" as="targetPoint"/>
                    </mxGeometry>
                </mxCell>
                <mxCell id="29" value="" style="endArrow=none;html=1;entryX=0.5;entryY=1;entryDx=0;entryDy=0;" edge="1" parent="1" source="9" target="5">
                    <mxGeometry width="50" height="50" relative="1" as="geometry">
                        <mxPoint x="200" y="460" as="sourcePoint"/>
                        <mxPoint x="250" y="410" as="targetPoint"/>
                    </mxGeometry>
                </mxCell>
                <mxCell id="30" value="" style="endArrow=none;html=1;entryX=0.5;entryY=1;entryDx=0;entryDy=0;exitX=0.5;exitY=0;exitDx=0;exitDy=0;" edge="1" parent="1" source="14" target="8">
                    <mxGeometry width="50" height="50" relative="1" as="geometry">
                        <mxPoint x="200" y="460" as="sourcePoint"/>
                        <mxPoint x="250" y="410" as="targetPoint"/>
                    </mxGeometry>
                </mxCell>
                <mxCell id="32" value="" style="endArrow=none;html=1;entryX=0.5;entryY=1;entryDx=0;entryDy=0;" edge="1" parent="1" source="15" target="8">
                    <mxGeometry width="50" height="50" relative="1" as="geometry">
                        <mxPoint x="510" y="460" as="sourcePoint"/>
                        <mxPoint x="560" y="410" as="targetPoint"/>
                    </mxGeometry>
                </mxCell>
            </root>
        </mxGraphModel>
    </diagram>
</mxfile>